<?xml version="1.0" encoding="UTF-8"?>
<svg width="700pt" height="700pt" version="1.1" viewBox="0 0 700 700" xmlns="http://www.w3.org/2000/svg">
 <g>
  <path d="m505.62 550.6c-4.8711 0-9.7773-0.91406-14.457-2.7852l-139.76-55.898c-0.85547-0.35938-1.9336-0.35156-2.7852-0.007813l-139.78 55.91c-11.965 4.7422-25.379 3.3477-35.922-3.7773-9.6562-6.5469-15.414-17.184-15.414-28.465l-0.003906-480.58c0-19.301 16.578-35 36.949-35h311.1c20.371 0 36.949 15.699 36.949 35v480.57c0 11.277-5.7578 21.918-15.414 28.465-6.4258 4.3398-13.91 6.5625-21.465 6.5625zm-312.91-35.152c0.47656 0.007812 1.7109 0.46094 3.1445-0.13672l139.76-55.898c9.1094-3.6562 19.621-3.668 28.797 0.007813l139.75 55.891c1.8125 0.71875 3.3164-0.17188 3.5703-0.47266l-0.22266-479.71c-0.066406 0.35156-0.73438-0.12891-1.9492-0.12891h-311.11c-1.332 0-2.0156 0.5625-2.1367 0.71875l0.1875 479.86c0-0.09375 0.085938-0.12891 0.20312-0.12891z"/>
  <path d="m404.07 376.77c-2.7852 0-5.5859-0.66797-8.1523-2.0078l-45.922-24.148-45.922 24.148c-5.8945 3.0938-13.023 2.5898-18.441-1.332-5.3828-3.9141-8.082-10.551-6.957-17.113l8.7656-51.152-37.172-36.223c-4.7695-4.6562-6.4766-11.613-4.4258-17.945 2.0703-6.332 7.5391-10.953 14.133-11.914l51.355-7.4609 22.969-46.527c5.8789-11.945 25.496-11.945 31.379 0l22.969 46.527 51.355 7.4609c6.5977 0.95703 12.066 5.5781 14.133 11.914 2.0508 6.332 0.33984 13.289-4.4258 17.945l-37.172 36.223 8.7656 51.152c1.1289 6.5625-1.5703 13.203-6.957 17.113-3.0586 2.2148-6.6641 3.3398-10.289 3.3398zm-54.07-63.43c2.8047 0 5.5859 0.66797 8.1523 2.0078l22.68 11.93-4.3242-25.266c-0.97656-5.6719 0.90625-11.469 5.0234-15.492l18.355-17.895-25.359-3.6836c-5.707-0.82812-10.629-4.4102-13.176-9.5781l-11.348-22.977-11.348 22.977c-2.5469 5.168-7.4688 8.75-13.176 9.5781l-25.359 3.6836 18.355 17.895c4.1211 4.0234 6 9.8164 5.0234 15.492l-4.3242 25.266 22.68-11.93c2.5625-1.3438 5.3516-2.0078 8.1523-2.0078z"/>
  <path d="m525 105h-350c-9.6719 0-17.5-7.8359-17.5-17.5s7.8281-17.5 17.5-17.5h350c9.6719 0 17.5 7.8359 17.5 17.5s-7.8281 17.5-17.5 17.5z"/>
 </g>
</svg>
