<?xml version="1.0" encoding="UTF-8"?>
<svg width="700pt" height="700pt" version="1.1" viewBox="0 0 700 700" xmlns="http://www.w3.org/2000/svg">
 <path d="m576.27 415.27-63-233.62-9.1016-33.426 0.003906 0.003906c-2.457-8.8867-8.3203-16.441-16.316-21.027-7.9922-4.5859-17.477-5.8359-26.383-3.4727l-50.398 13.477-0.003906-0.003906c-8.9141 2.4219-16.512 8.2695-21.133 16.266-4.625 8-5.8945 17.504-3.543 26.434l3.5 13.301-4.8984-0.69922h-52.5c0-9.2812-3.6875-18.184-10.25-24.75-6.5664-6.5625-15.469-10.25-24.75-10.25h-52.5v-35c0-9.2812-3.6875-18.184-10.25-24.75-6.5664-6.5625-15.469-10.25-24.75-10.25h-52.5c-9.2812 0-18.184 3.6875-24.75 10.25-6.5625 6.5664-10.25 15.469-10.25 24.75v315c0 9.2812 3.6875 18.184 10.25 24.75 6.5664 6.5625 15.469 10.25 24.75 10.25h52.5c6.1641-0.0625 12.199-1.7539 17.5-4.8984 5.3008 3.1445 11.336 4.8359 17.5 4.8984h52.5c6.1641-0.0625 12.199-1.7539 17.5-4.8984 5.3008 3.1445 11.336 4.8359 17.5 4.8984h52.5c9.2812 0 18.184-3.6875 24.75-10.25 6.5625-6.5664 10.25-15.469 10.25-24.75v-132.65l29.227 108.5 9.1016 33.426-0.003906-0.003906c2.457 8.8867 8.3203 16.441 16.316 21.027 7.9922 4.5859 17.477 5.8359 26.383 3.4727l50.398-13.477 0.003906 0.003906c8.9141-2.4219 16.512-8.2695 21.133-16.266 4.625-8 5.8945-17.504 3.543-26.434zm-418.77-292.77h52.5v17.5h-52.5zm52.5 315h-52.5v-17.5h52.5zm0-245v192.5h-52.5v-210h52.5zm87.5 245h-52.5v-17.5h52.5zm0-52.5h-52.5v-140h52.5zm-52.5-175v-17.5h52.5v17.5zm87.5 17.5h52.5v17.5h-52.5zm0 52.5h52.5v105h-52.5zm0 157.5v-17.5h52.5v17.5zm87.5-266.52 50.398-13.477 4.375 16.449-50.398 13.477zm13.477 50.051 50.398-13.477 45.148 166.43-50.574 13.477zm109.02 203-50.398 13.477-4.375-16.449 50.574-13.477 4.375 16.273z"/>
</svg>
