<?xml version="1.0" encoding="UTF-8"?>
<svg width="700pt" height="700pt" version="1.1" viewBox="0 0 700 700" xmlns="http://www.w3.org/2000/svg">
 <g>
  <path d="m595 17.5h-490c-4.6406 0-9.0938 1.8438-12.375 5.125s-5.125 7.7344-5.125 12.375v490c0 4.6406 1.8438 9.0938 5.125 12.375s7.7344 5.125 12.375 5.125h490c4.6406 0 9.0938-1.8438 12.375-5.125s5.125-7.7344 5.125-12.375v-490c0-4.6406-1.8438-9.0938-5.125-12.375s-7.7344-5.125-12.375-5.125zm-437.5 210h-35v-35h35zm0 35v35h-35v-35zm0 70v35h-35v-35zm0-175h-35v-35h35zm-35 245h35v35h-35zm70-350h315v455h-315zm350 280h35v35h-35zm0-35v-35h35v35zm0-70v-35h35v35zm0-70v-35h35v35zm0 245h35v35h-35zm35-315h-35v-35h35zm-420-35v35h-35v-35zm-35 420h35v35h-35zm420 35v-35h35v35z"/>
  <path d="m428.75 264.77-140-80.852v0.003906c-3.5703-2.0625-7.7539-2.7969-11.812-2.0742-4.0586 0.71875-7.7305 2.8516-10.375 6.0156-2.6406 3.1641-4.0781 7.1602-4.0625 11.281v161.7c-0.015625 4.1211 1.4219 8.1172 4.0625 11.281 2.6445 3.1641 6.3164 5.2969 10.375 6.0156 4.0586 0.72266 8.2422-0.011719 11.812-2.0742l140-80.852v0.003906c5.3984-3.1328 8.7188-8.8984 8.7188-15.141 0-6.2383-3.3203-12.004-8.7188-15.137zm-131.25 65.801v-101.15l87.5 50.574z"/>
 </g>
</svg>
