<?xml version="1.0" encoding="UTF-8"?>
<svg width="700pt" height="700pt" version="1.1" viewBox="0 0 700 700" xmlns="http://www.w3.org/2000/svg">
 <g>
  <path d="m595 17.5h-490c-4.6406 0-9.0938 1.8438-12.375 5.125s-5.125 7.7344-5.125 12.375v490c0 4.6406 1.8438 9.0938 5.125 12.375s7.7344 5.125 12.375 5.125h490c4.6406 0 9.0938-1.8438 12.375-5.125s5.125-7.7344 5.125-12.375v-490c0-4.6406-1.8438-9.0938-5.125-12.375s-7.7344-5.125-12.375-5.125zm-192.5 402.5c0-23.207 9.2188-45.461 25.629-61.871s38.664-25.629 61.871-25.629 45.461 9.2188 61.871 25.629 25.629 38.664 25.629 61.871-9.2188 45.461-25.629 61.871-38.664 25.629-61.871 25.629-45.461-9.2188-61.871-25.629-25.629-38.664-25.629-61.871zm140-157.5h35v35h-35zm0-35v-35h35v35zm0-70v-35h35v35zm33.074 175h1.9258v1.9258zm1.9258-245h-35v-35h35zm-420 175v35h-35v-35zm-35-35v-35h35v35zm35 105v35h-35v-35zm0-175h-35v-35h35zm-35 245h35v35h-35zm35-350v35h-35v-35zm-35 420h35v35h-35zm70 35v-455h315v246.4c-34.254-4.8398-68.957 5.0273-95.539 27.164-26.582 22.141-42.566 54.484-44 89.047-1.4375 34.566 11.809 68.125 36.465 92.391zm383.07 0 1.9258-1.9258v1.9258z"/>
  <path d="m437.5 280c0.011719-3.082-0.78906-6.1172-2.3281-8.7891-1.5352-2.6758-3.75-4.8945-6.4219-6.4375l-140-80.852v0.003906c-3.5703-2.0625-7.7539-2.7969-11.812-2.0742-4.0586 0.71875-7.7305 2.8516-10.375 6.0156-2.6406 3.1641-4.0781 7.1602-4.0625 11.281v161.7c-0.015625 4.1211 1.4219 8.1172 4.0625 11.281 2.6445 3.1641 6.3164 5.2969 10.375 6.0156 4.0586 0.72266 8.2422-0.011719 11.812-2.0742l140-80.852v0.003906c2.6719-1.543 4.8867-3.7617 6.4219-6.4375 1.5391-2.6719 2.3398-5.707 2.3281-8.7891zm-140 50.574v-101.15l87.5 50.574z"/>
  <path d="m514.68 382.9-37.102 37.102-12.426-12.426c-4.5039-3.8555-10.656-5.1719-16.344-3.4883-5.6875 1.6797-10.137 6.1289-11.82 11.816-1.6797 5.6914-0.36719 11.844 3.4922 16.348l24.676 24.676h-0.003906c3.2812 3.2578 7.7148 5.0898 12.34 5.0898 4.6211 0 9.0586-1.832 12.336-5.0898l49.527-49.527c3.8555-4.5039 5.1719-10.656 3.4883-16.344s-6.1328-10.137-11.82-11.82c-5.6875-1.6797-11.84-0.36719-16.344 3.4922z"/>
 </g>
</svg>
